<?xml version="1.0" encoding="UTF-8" standalone="no"?>
<!-- Created with Inkscape (http://www.inkscape.org/) -->

<svg
   xmlns:dc="http://purl.org/dc/elements/1.1/"
   xmlns:cc="http://creativecommons.org/ns#"
   xmlns:rdf="http://www.w3.org/1999/02/22-rdf-syntax-ns#"
   xmlns:svg="http://www.w3.org/2000/svg"
   xmlns="http://www.w3.org/2000/svg"
   xmlns:sodipodi="http://sodipodi.sourceforge.net/DTD/sodipodi-0.dtd"
   xmlns:inkscape="http://www.inkscape.org/namespaces/inkscape"
   width="290mm"
   height="290mm"
   viewBox="0 0 290 290"
   version="1.1"
   id="svg8"
   inkscape:version="0.92.2 (5c3e80d, 2017-08-06)"
   sodipodi:docname="aspyre.svg"
   inkscape:export-filename="C:\Users\achague.DESKTOP-5OQDO79\Pictures\Mascottes et logos\aspyre\aspyre.png"
   inkscape:export-xdpi="199.9593"
   inkscape:export-ydpi="199.9593">
  <defs
     id="defs2" />
  <sodipodi:namedview
     id="base"
     pagecolor="#ffffff"
     bordercolor="#666666"
     borderopacity="1.0"
     inkscape:pageopacity="0.0"
     inkscape:pageshadow="2"
     inkscape:zoom="0.79152909"
     inkscape:cx="693.43111"
     inkscape:cy="442.85021"
     inkscape:document-units="mm"
     inkscape:current-layer="layer1"
     showgrid="false"
     inkscape:window-width="1920"
     inkscape:window-height="986"
     inkscape:window-x="-11"
     inkscape:window-y="-11"
     inkscape:window-maximized="1"
     showguides="false" />
  <metadata
     id="metadata5">
    <rdf:RDF>
      <cc:Work
         rdf:about="">
        <dc:format>image/svg+xml</dc:format>
        <dc:type
           rdf:resource="http://purl.org/dc/dcmitype/StillImage" />
        <dc:title />
      </cc:Work>
    </rdf:RDF>
  </metadata>
  <g
     inkscape:label="Calque 1"
     inkscape:groupmode="layer"
     id="layer1"
     transform="translate(0,-7)">
    <g
       id="g1022"
       transform="translate(-18.777012,3.565195)">
      <path
         sodipodi:nodetypes="cssscc"
         inkscape:connector-curvature="0"
         id="path841"
         d="m 164.92868,234.46718 c 0,0 -37.96711,12.99252 -55.05752,11.40073 -19.938453,-1.85705 -35.218623,-14.22135 -34.745033,-31.12093 0.60481,-21.58214 27.927443,-33.91626 46.504893,-36.66722 17.22698,-2.55099 40.62496,7.39507 40.62496,7.39507 z"
         style="fill:#34709f;fill-opacity:1;stroke:#060000;stroke-width:4;stroke-linecap:butt;stroke-linejoin:miter;stroke-miterlimit:4;stroke-dasharray:none;stroke-opacity:1" />
      <path
         sodipodi:nodetypes="cc"
         inkscape:connector-curvature="0"
         id="path872"
         d="m 114.58338,201.71895 c 9.00897,10.49116 39.70442,-15.75909 78.84137,-8.50435"
         style="fill:#3472a3;fill-opacity:1;stroke:#000000;stroke-width:4;stroke-linecap:round;stroke-linejoin:miter;stroke-miterlimit:4;stroke-dasharray:none;stroke-opacity:1" />
      <path
         sodipodi:nodetypes="csscc"
         inkscape:connector-curvature="0"
         id="path839"
         d="m 229.55671,194.35591 c 0,0 28.4342,-12.33762 -0.45696,-32.56422 -3.60061,-2.52078 2.78221,9.0192 1.44743,13.10621 -2.71224,8.30458 -21.7015,11.71126 -21.7015,11.71126 z"
         style="fill:#3472a3;fill-opacity:1;stroke:#000000;stroke-width:4;stroke-linecap:butt;stroke-linejoin:miter;stroke-miterlimit:4;stroke-dasharray:none;stroke-opacity:1" />
      <path
         style="fill:#3472a3;fill-opacity:1;stroke:#000000;stroke-width:4;stroke-linecap:butt;stroke-linejoin:miter;stroke-miterlimit:4;stroke-dasharray:none;stroke-opacity:1"
         d="m 248.8535,199.58266 c 12.60721,9.14152 25.27311,35.62955 13.89801,48.37578 -4.67475,5.23824 -39.93147,8.69904 -59.86837,6.41448 -17.14115,-1.96419 -37.53409,-2.71684 -43.8322,-27.52877 -8.57265,-33.77267 20.45787,-98.35695 16.83798,-103.16603 0,0 -19.22222,-4.696 -24.05426,-12.2944 -6.08522,-9.56904 -2.19764,-18.726885 0,-24.395875 5.4349,-14.01977 18.85949,-26.39666 36.74956,-27.58805 17.89007,-1.191399 30.35338,9.32279 37.02633,21.10479 2.68124,4.7341 8.76428,12.18403 2.13821,27.078205 -4.19867,9.43782 -24.06381,14.22444 -24.06381,14.22444 -3.23367,1.85052 -6.38849,38.25675 -1.10291,62.32011 17.29047,0.51912 33.15649,5.94562 46.27146,15.45532 z"
         id="path874"
         inkscape:connector-curvature="0"
         sodipodi:nodetypes="sssscsszssccs" />
      <ellipse
         transform="matrix(-0.98299372,-0.18363919,-0.18100707,0.98348179,0,0)"
         style="opacity:1;fill:#000000;fill-opacity:1;fill-rule:nonzero;stroke:none;stroke-width:0.80319256;stroke-linecap:round;stroke-linejoin:round;stroke-miterlimit:4;stroke-dasharray:none;stroke-opacity:1"
         id="ellipse847"
         cx="-175.41493"
         cy="53.476357"
         rx="3.7060108"
         ry="7.4638653" />
      <ellipse
         ry="7.4638653"
         rx="3.7060108"
         cy="119.52284"
         cx="195.76263"
         id="ellipse853"
         style="opacity:1;fill:#000000;fill-opacity:1;fill-rule:nonzero;stroke:none;stroke-width:0.80319256;stroke-linecap:round;stroke-linejoin:round;stroke-miterlimit:4;stroke-dasharray:none;stroke-opacity:1"
         transform="matrix(0.98299372,-0.18363919,0.18100707,0.98348179,0,0)" />
      <path
         style="fill:#3472a3;fill-opacity:1;stroke:#000000;stroke-width:4;stroke-linecap:round;stroke-linejoin:miter;stroke-miterlimit:4;stroke-dasharray:none;stroke-opacity:1"
         d="m 202.58204,184.12734 c 2.47452,14.30311 7.15261,22.13706 15.00092,22.13706"
         id="path870"
         inkscape:connector-curvature="0"
         sodipodi:nodetypes="cc" />
      <g
         style="stroke:#ffcf3c;stroke-opacity:1"
         id="g924">
        <path
           style="fill:none;stroke:#ffcf3c;stroke-width:4;stroke-linecap:round;stroke-linejoin:miter;stroke-miterlimit:4;stroke-dasharray:none;stroke-opacity:1"
           d="m 189.52716,109.67985 c 0.10563,6.29669 2.50574,9.97112 -3.31052,23.03569 l -3.72433,3.17258"
           id="path918"
           inkscape:connector-curvature="0"
           sodipodi:nodetypes="ccc" />
        <path
           style="fill:none;stroke:#ffcf3c;stroke-width:4;stroke-linecap:round;stroke-linejoin:miter;stroke-miterlimit:4;stroke-dasharray:none;stroke-opacity:1"
           d="m 186.21664,132.71554 1.79319,3.58639"
           id="path920"
           inkscape:connector-curvature="0" />
      </g>
      <path
         sodipodi:nodetypes="csc"
         inkscape:connector-curvature="0"
         id="path843"
         d="m 217.90705,101.22906 c -10.20145,19.71249 -24.36814,7.97378 -28.91518,7.74852 -4.13817,-0.20503 -18.61203,16.36159 -26.83631,-3.02382"
         style="fill:none;stroke:#000000;stroke-width:4;stroke-linecap:round;stroke-linejoin:miter;stroke-miterlimit:4;stroke-dasharray:none;stroke-opacity:1" />
      <g
         transform="translate(1.7834997,-4.3454916)"
         id="g994">
        <g
           id="g922"
           transform="matrix(-0.79577808,0,0,1,376.02438,7.2835598)">
          <path
             sodipodi:nodetypes="sssss"
             inkscape:connector-curvature="0"
             id="path888"
             d="m 301.69688,233.16232 c 11.00701,-0.41982 73.15615,0.30289 82.59321,0.20917 12.55175,-0.12473 22.24479,22.90587 8.19319,22.95846 -29.90037,0.11195 -74.32428,-0.12574 -97.87281,0.0162 -14.76177,0.089 -5.53191,-22.70266 7.08641,-23.1839 z"
             style="fill:#ffcf3c;fill-opacity:1;stroke:#000000;stroke-width:4;stroke-linecap:butt;stroke-linejoin:round;stroke-miterlimit:4;stroke-dasharray:none;stroke-opacity:1" />
          <path
             sodipodi:nodetypes="cc"
             inkscape:connector-curvature="0"
             id="path890"
             d="m 304.92402,244.17282 78.27874,0.38865"
             style="fill:none;stroke:#000000;stroke-width:4;stroke-linecap:round;stroke-linejoin:miter;stroke-miterlimit:4;stroke-dasharray:none;stroke-opacity:1" />
          <path
             sodipodi:nodetypes="cc"
             inkscape:connector-curvature="0"
             id="path892"
             d="m 287.39427,248.90889 111.3406,0.34319"
             style="fill:none;stroke:#000000;stroke-width:4;stroke-linecap:round;stroke-linejoin:miter;stroke-miterlimit:4;stroke-dasharray:none;stroke-opacity:1" />
        </g>
        <g
           id="g917"
           transform="matrix(-1,0,0,1,448.76349,7.2835598)">
          <path
             sodipodi:nodetypes="ssssssss"
             inkscape:connector-curvature="0"
             id="path886"
             d="m 338.07161,237.3723 c 0.0466,3.99205 11.77861,3.80113 11.88696,-0.18962 0.94544,-34.82448 -0.74841,-118.58529 0.51567,-186.713427 0.11093,-5.98204 -4.03142,-11.638026 -9.0617,-14.23786 -3.45669,-1.786534 -11.16825,-2.570265 -13.89458,0.32358 -2.44122,2.591235 -0.68775,9.872239 2.71852,9.38406 8.43775,-1.209302 7.28576,5.471269 7.24934,10.3548 -0.47029,63.096277 0.10487,139.883677 0.58579,181.078387 z"
             style="fill:#cccccc;stroke:#000000;stroke-width:4;stroke-linecap:butt;stroke-linejoin:miter;stroke-miterlimit:4;stroke-dasharray:none;stroke-opacity:1" />
          <path
             sodipodi:nodetypes="ccccc"
             inkscape:connector-curvature="0"
             id="path900"
             d="m 337.46026,56.593218 12.86853,-0.228808 -0.0534,7.093143 -12.86848,-0.05719 z"
             style="fill:#ffcf3c;fill-opacity:1;stroke:#000000;stroke-width:4;stroke-linecap:round;stroke-linejoin:bevel;stroke-miterlimit:4;stroke-dasharray:none;stroke-opacity:1" />
        </g>
        <g
           id="g978"
           transform="translate(-1.6713431,-17.691222)">
          <g
             transform="matrix(-1,0,0,1,449.46223,7.2835598)"
             id="g913">
            <path
               style="fill:#ffcf3c;fill-opacity:1;stroke:#000000;stroke-width:4;stroke-linecap:round;stroke-linejoin:miter;stroke-miterlimit:4;stroke-dasharray:none;stroke-opacity:1"
               d="m 302.06145,205.778 c -0.80634,5.95363 7.47946,14.2501 16.02259,14.4151 13.7959,0.26647 34.36972,0.53004 48.06773,0.45762 11.68831,-0.0619 20.53032,-8.15608 19.61946,-14.87272 -3.02299,-22.29129 -8.28008,-71.60389 -9.80969,-83.51601 -0.61393,-4.78094 -7.53009,-10.17142 -14.38767,-10.29649 -9.90311,-0.1805 -24.40298,-0.59243 -36.62305,-0.45762 -6.55444,0.0724 -13.02382,5.48848 -13.40665,10.06768 -1.48505,17.76327 -6.60365,62.94451 -9.48272,84.20244 z"
               id="path894"
               inkscape:connector-curvature="0"
               sodipodi:nodetypes="sssssssss" />
            <path
               style="fill:none;stroke:#000000;stroke-width:4;stroke-linecap:round;stroke-linejoin:miter;stroke-miterlimit:4;stroke-dasharray:none;stroke-opacity:1"
               d="m 303.53289,198.57046 c 6.76564,11.17583 18.33808,9.31215 41.03988,9.25185 22.7018,-0.0602 32.19337,2.71326 40.05401,-10.1671"
               id="path902"
               inkscape:connector-curvature="0"
               sodipodi:nodetypes="czc" />
            <path
               style="fill:none;stroke:#000000;stroke-width:4;stroke-linecap:round;stroke-linejoin:round;stroke-miterlimit:4;stroke-dasharray:none;stroke-opacity:1"
               d="m 311.87124,125.80855 c 4.57786,-7.09313 21.00963,-5.52897 32.20694,-5.6076 11.19732,-0.0787 24.68954,-1.59993 32.04686,5.14999"
               id="path904"
               inkscape:connector-curvature="0"
               sodipodi:nodetypes="czc" />
          </g>
          <text
             id="text975"
             y="189.34145"
             x="76.466339"
             style="font-style:normal;font-weight:normal;font-size:38.19948196px;line-height:1.25;font-family:sans-serif;letter-spacing:0px;word-spacing:0px;fill:#000000;fill-opacity:1;stroke:none;stroke-width:0.95498717"
             xml:space="preserve"><tspan
               style="font-style:normal;font-variant:normal;font-weight:bold;font-stretch:normal;font-family:sans-serif;-inkscape-font-specification:'sans-serif Bold';stroke-width:0.95498717"
               y="189.34145"
               x="76.466339"
               id="tspan973"
               sodipodi:role="line">GT</tspan></text>
        </g>
      </g>
    </g>
  </g>
</svg>
